<?xml version="1.0" standalone="no"?><!DOCTYPE svg PUBLIC "-//W3C//DTD SVG 1.1//EN" "http://www.w3.org/Graphics/SVG/1.1/DTD/svg11.dtd"><svg t="1483597571163" class="icon" style="" viewBox="0 0 1024 1024" version="1.1" xmlns="http://www.w3.org/2000/svg" p-id="1441" xmlns:xlink="http://www.w3.org/1999/xlink" width="200" height="200"><defs><style type="text/css"></style></defs><path d="M993.536 933.376l0.2048-0.3328-281.5744-282.88c55.3472-67.1232 87.296-150.6304 89.8816-235.6224 5.2224-103.6032-34.2528-210.5856-105.3952-286.08C635.8016 62.5152 550.2976 18.2016 462.0544 6.8096a383.36 383.36 0 0 0-52.1216-3.584c-87.2448 0-172.3904 29.1328-239.4624 81.9712-77.8752 59.6224-131.6096 149.12-147.456 245.5808-15.7184 89.8304 1.28 186.1888 46.6688 264.2688a394.7776 394.7776 0 0 0 127.8208 134.9632 386.816 386.816 0 0 0 160.5376 59.1616c17.024 2.3296 34.4576 3.584 51.8656 3.584a391.168 391.168 0 0 0 225.0496-71.3216l281.2672 282.624 5.1456 4.992 0.1792-0.1536c9.216 7.6032 20.992 11.8272 33.1776 11.8272a52.3776 52.3776 0 0 0 38.8096-87.3472z m-527.2064-205.1584a333.184 333.184 0 0 1-146.5344-7.6032c-92.416-25.4208-171.5712-92.8768-211.7632-180.5056-46.4896-97.3312-40.6784-219.8784 14.7712-312.32 49.3824-85.2992 136.448-145.2544 232.8064-160.3328l6.8096-1.1008c3.584-0.5376 7.2192-1.1776 10.752-1.5616 11.904-1.2288 24.0128-1.8176 35.9936-1.8176 49.2032 0 97.792 10.624 140.5952 30.8224a333.5424 333.5424 0 0 1 171.3408 184.064c33.4848 86.3488 28.6464 187.2128-13.0048 269.696-46.0544 94.6176-138.7264 163.84-241.7664 180.6592z" p-id="1442"></path><path d="M439.4496 208.4864h-59.2128v159.7184H221.184v59.4688l159.0528 0.1536v159.7952h59.2128v-159.7952l159.104-0.1536v-59.4688h-158.9248l-0.1792-159.7184z" p-id="1443"></path></svg>