<?xml version="1.0" encoding="utf-8"?>
<!-- Generator: Adobe Illustrator 16.0.0, SVG Export Plug-In . SVG Version: 6.00 Build 0)  -->
<!DOCTYPE svg PUBLIC "-//W3C//DTD SVG 1.1//EN" "http://www.w3.org/Graphics/SVG/1.1/DTD/svg11.dtd">
<svg version="1.1" id="图层_1" xmlns="http://www.w3.org/2000/svg" xmlns:xlink="http://www.w3.org/1999/xlink" x="0px" y="0px"
	 width="17.01px" height="17.01px" viewBox="0 0 17.01 17.01" enable-background="new 0 0 17.01 17.01" xml:space="preserve">
<g>
	<path fill-rule="evenodd" clip-rule="evenodd" fill="#262536" d="M15.569,10.961c0.082,0.063,0.161,0.129,0.239,0.194
		c0.522,0.43,0.729,0.669,0.753,0.694l0,0l0,0l0,0c0,0,0.045,0.053,0.089,0.106c0.023,0.027,0.047,0.055,0.064,0.076
		c0.012,0.014,0.02,0.025,0.027,0.033c0.015,0.018,0.024,0.036,0.035,0.054l0.11,0.16v0.016c0.219,0.438,0.066,1.014-0.07,1.305
		c-0.239,0.515-0.691,1.036-1.035,1.353c-0.691,0.637-1.637,1.367-2.82,1.367c-0.122,0-0.248-0.009-0.374-0.023
		c-0.86-0.108-2.178-0.627-3.61-1.422c-1.556-0.864-3.057-1.951-4.226-3.061C3.583,10.703,2.437,9.278,1.525,7.8
		C0.685,6.436,0.137,5.18,0.021,4.354c-0.075-0.541,0.059-1.142,0.387-1.74c0.295-0.533,0.733-1.048,1.268-1.488
		C1.708,1.099,1.739,1.074,1.77,1.048c0.412-0.34,0.767-0.634,1.358-0.854c0.207-0.087,0.403-0.13,0.596-0.13
		c0.179,0,0.356,0.037,0.531,0.11l0.008,0.004C4.341,0.214,4.47,0.281,4.504,0.3c0.102,0.048,0.657,0.342,1.272,1.159
		C5.972,1.72,6.282,2.161,6.507,2.544C6.886,3.189,7.133,3.746,7.144,3.77L7.15,3.786l0.047,0.143
		c0.16,0.405,0.066,0.824-0.25,1.126c-0.017,0.018-0.04,0.04-0.04,0.04L6.88,5.122L6.86,5.135C6.847,5.146,6.82,5.168,6.804,5.184
		c-0.047,0.04-0.064,0.053-0.08,0.064L6.71,5.258C6.507,5.392,6.434,5.432,6.356,5.474C6.304,5.502,6.25,5.532,6.133,5.606
		L6.127,5.609c-0.2,0.12-0.391,0.195-0.591,0.276C5.377,5.948,5.199,6.019,4.98,6.125c-0.313,0.152-0.325,0.587-0.259,0.73
		c0.385,0.861,1.07,1.73,2.222,2.823c1.016,0.963,2.012,1.581,2.854,2.056c0.103,0.059,0.204,0.086,0.309,0.086
		c0.297,0,0.584-0.229,0.711-0.46c0.1-0.175,0.192-0.359,0.273-0.521c0.065-0.131,0.128-0.257,0.189-0.365v-0.003
		c0.148-0.266,0.259-0.437,0.325-0.533c0.046-0.068,0.091-0.135,0.144-0.19c0.13-0.181,0.331-0.333,0.545-0.407
		c0.122-0.041,0.262-0.063,0.403-0.063c0.187,0,0.363,0.037,0.5,0.105l0.367,0.183l0,0c0.027,0.016,0.055,0.033,0.089,0.053
		c0.04,0.025,0.099,0.061,0.173,0.108c0.133,0.083,0.344,0.219,0.597,0.386c0.044,0.029,0.087,0.058,0.133,0.089L15.569,10.961z
		 M12.291,10.259c-0.027,0.033-0.155,0.208-0.36,0.575c-0.053,0.097-0.111,0.215-0.177,0.34c-0.084,0.17-0.181,0.362-0.286,0.552
		c-0.236,0.42-0.746,0.843-1.362,0.843c-0.235,0-0.463-0.062-0.676-0.184c-0.882-0.498-1.927-1.146-3-2.165
		C5.205,9.058,4.468,8.115,4.04,7.161C3.93,6.914,3.911,6.585,3.995,6.28c0.098-0.373,0.333-0.665,0.659-0.824
		C4.896,5.337,5.089,5.26,5.26,5.192c0.186-0.074,0.333-0.133,0.481-0.221c0.133-0.083,0.2-0.12,0.258-0.151
		C6.063,4.784,6.12,4.753,6.285,4.646c0.009-0.008,0.022-0.02,0.036-0.031c0.034-0.029,0.056-0.048,0.073-0.062
		c0.009-0.01,0.022-0.021,0.032-0.033l0.006-0.004c0.099-0.093,0.121-0.195,0.07-0.319L6.494,4.174l-0.04-0.119
		C6.413,3.964,6.187,3.47,5.864,2.922C5.691,2.628,5.424,2.23,5.181,1.907c-0.515-0.684-0.971-0.922-1-0.937L4.165,0.962
		C4.111,0.935,4.011,0.884,3.96,0.861C3.879,0.827,3.802,0.811,3.724,0.811c-0.094,0-0.193,0.024-0.312,0.074L3.394,0.892
		C2.917,1.067,2.635,1.301,2.245,1.624C2.213,1.649,2.182,1.675,2.149,1.702C1.198,2.484,0.652,3.484,0.758,4.25
		C0.859,4.967,1.383,6.148,2.16,7.409c0.878,1.424,1.981,2.795,3.105,3.864s2.571,2.115,4.074,2.948
		c1.332,0.741,2.584,1.239,3.343,1.335c0.094,0.012,0.187,0.018,0.279,0.018c0.723,0,1.435-0.36,2.314-1.17
		c0.278-0.256,0.671-0.702,0.866-1.119c0.112-0.242,0.146-0.563,0.067-0.674l-0.067-0.096v-0.003l-0.008-0.01
		c-0.029-0.038-0.089-0.108-0.14-0.166c-0.002-0.001-0.19-0.216-0.662-0.608c-0.446-0.368-0.953-0.748-1.321-0.991
		c-0.417-0.275-0.728-0.47-0.795-0.509l-0.354-0.177c-0.017-0.009-0.077-0.026-0.167-0.026c-0.059,0-0.118,0.008-0.159,0.022
		c-0.085,0.029-0.165,0.104-0.188,0.146L12.291,10.259"/>
</g>
</svg>
