<?xml version="1.0" encoding="utf-8"?>
<!-- Generator: Adobe Illustrator 19.0.0, SVG Export Plug-In . SVG Version: 6.00 Build 0)  -->
<svg version="1.1" id="图层_1" xmlns="http://www.w3.org/2000/svg" xmlns:xlink="http://www.w3.org/1999/xlink" x="0px" y="0px"
	 viewBox="0 0 22 22" style="enable-background:new 0 0 22 22;" xml:space="preserve">
<style type="text/css">
	.st0{fill:#1D1E1E;}
</style>
<g id="XMLID_15_">
	<g id="XMLID_17_">
		<path id="XMLID_3_" class="st0" d="M10.9,21c-1.4,0-1.8-0.3-2.2-0.7C8.5,20.1,8.5,20,8.1,20l-0.2,0c-1,0-1,0-2,0.3
			c0,0-0.1,0-0.1,0C4,21.1,3,20.2,2.7,19.9c-0.6-0.7-0.8-1.6-0.4-2.3c0.2-0.3,0.9-1.7,1.7-3.2c1-1.8,2.1-4,2.4-4.5
			c0-0.3-0.1-1.2-0.3-2.1H5.3C5.1,7.7,5,7.6,4.9,7.5C4.8,7.4,4.8,7.3,4.8,7.1C5.6,2,6,1.7,6.1,1.5C6.7,1.1,7,1,8.1,1.1
			c1.2,0.1,1.8,1.7,2.1,2.5c0,0,0,0.1,0,0.1c0.1,0,0.3,0,0.6,0c0.1,0,0.1,0,0.2,0c0.1,0,0.1,0,0.2,0c0.2,0,0.4,0,0.5,0
			c0,0,0-0.1,0-0.1c0.3-0.8,0.9-2.4,2.1-2.5c1.1-0.1,1.4,0,2,0.5C16,1.7,16.4,2,17.2,7.1c0,0.1,0,0.3-0.1,0.4
			c-0.1,0.1-0.2,0.2-0.4,0.2h-0.7c-0.1,0.9-0.2,1.9-0.3,2.2c0.4,0.8,3.6,7,4,7.7l0,0c0.5,0.7,0.4,1.6-0.1,2.4
			c-0.7,0.9-1.9,1.1-3,0.7c-0.3-0.1-0.5-0.2-0.7-0.3C15.2,20,15,20,14.1,20c-0.4,0-0.6,0.1-0.8,0.3C12.8,20.7,12.3,21,10.9,21z
			 M7.2,19c0.2,0,0.4,0,0.7,0l0.2,0c0.7,0,1,0.3,1.3,0.6c0.2,0.2,0.4,0.4,1.5,0.4c1.2,0,1.5-0.2,1.8-0.5c0.3-0.2,0.6-0.5,1.4-0.5
			c1.1,0,1.5,0.1,2.2,0.4c0.2,0.1,0.4,0.2,0.7,0.3c0.9,0.3,1.6,0,1.9-0.4c0.2-0.3,0.4-0.8,0.1-1.2l0,0c-0.4-0.7-4.1-7.8-4.2-8
			c0-0.1-0.1-0.2,0.3-3c0-0.2,0.2-0.4,0.5-0.4h0.6c-0.3-2-0.7-4.1-0.9-4.4c-0.3-0.2-0.3-0.2-1.3-0.2c-0.3,0-0.7,0.3-1.3,1.9
			c-0.1,0.1-0.1,0.2-0.1,0.3c-0.2,0.4-0.7,0.5-1.5,0.4c-0.8,0.1-1.3-0.1-1.5-0.4c0-0.1-0.1-0.1-0.1-0.3c-0.6-1.5-1-1.8-1.3-1.9
			c-0.9-0.1-1,0-1.3,0.3C6.6,2.6,6.2,4.7,5.9,6.7h0.6c0.3,0,0.5,0.2,0.5,0.4c0.4,2.8,0.4,2.9,0.3,3c0,0.1,0,0.1-2.5,4.7
			C4,16.3,3.3,17.7,3.1,18c-0.1,0.2-0.1,0.8,0.3,1.2c0.4,0.5,1.1,0.6,2,0.2C6.3,19.1,6.6,19,7.2,19z"/>
	</g>
	<g id="XMLID_16_">
		<rect id="XMLID_2_" x="6.5" y="9.9" class="st0" width="8.9" height="1"/>
	</g>
</g>
</svg>
