<?xml version="1.0" standalone="no"?><!DOCTYPE svg PUBLIC "-//W3C//DTD SVG 1.1//EN" "http://www.w3.org/Graphics/SVG/1.1/DTD/svg11.dtd"><svg t="1483600821244" class="icon" style="" viewBox="0 0 1024 1024" version="1.1" xmlns="http://www.w3.org/2000/svg" p-id="2652" xmlns:xlink="http://www.w3.org/1999/xlink" width="200" height="200"><defs><style type="text/css"></style></defs><path d="M523.870091 847.483562h7.265314v23.535525h-7.265314zM364.44249 501.306685H387.875687v-9.004896h-23.433197v9.004896zM261.193165 501.306685H284.524033v-9.004896h-23.330868v9.004896zM209.517338 492.301789h23.433197v9.004896h-23.433197zM416.118317 492.301789h23.433197v9.004896h-23.433197zM467.794144 492.301789H491.227341v9.004896h-23.433197zM312.766663 492.301789h23.433197v9.004896h-23.433197zM523.870091 224.917758h7.265314v23.535525h-7.265314zM523.870091 276.798241h7.265314v23.535525h-7.265314zM523.870091 173.037274h7.265314v23.535525h-7.265314zM157.841511 492.301789h23.433197v9.004896h-23.433197zM523.870091 328.678725h7.265314v23.535525h-7.265314zM523.870091 432.439692h7.265314v23.535525h-7.265314zM523.870091 380.559209h7.265314v23.535525h-7.265314zM523.870091 639.961627h7.265314v23.535525h-7.265314zM523.870091 795.603078h7.265314v23.535525h-7.265314zM622.821625 492.301789h23.433197v9.004896h-23.433197zM674.497452 492.301789H697.930649v9.004896h-23.433197zM726.173279 492.301789h23.433196v9.004896h-23.433196zM881.098431 492.301789h23.433197v9.004896H881.098431zM829.422604 492.301789h23.433197v9.004896h-23.433197zM777.746777 492.301789h23.433197v9.004896H777.746777zM523.870091 691.842111h7.265314v23.535525h-7.265314zM571.145798 492.301789H594.578995v9.004896h-23.433197zM523.870091 588.081143h7.265314v23.535525h-7.265314zM523.870091 743.722594h7.265314v23.535525h-7.265314zM523.870091 536.20066h7.265314v23.535525h-7.265314zM531.135405 484.320176h-7.265314v7.981613h-4.40012v9.004896h4.40012v6.549016h7.265314v-6.549016h11.767763v-9.004896H531.135405zM523.870091 121.15679h7.265314v23.535525h-7.265314z" fill="#050505" p-id="2653"></path></svg>