<?xml version="1.0" encoding="utf-8"?>
<!-- Generator: Adobe Illustrator 19.0.0, SVG Export Plug-In . SVG Version: 6.00 Build 0)  -->
<svg version="1.1" id="图层_1" xmlns="http://www.w3.org/2000/svg" xmlns:xlink="http://www.w3.org/1999/xlink" x="0px" y="0px"
	 viewBox="-236 359.9 122 122" style="enable-background:new -236 359.9 122 122;" xml:space="preserve">
<style type="text/css">
	.st0{fill:#FF002B;}
</style>
<g>
	<g>
		<path class="st0" d="M-174.9,481.5c-33.4,0-60.5-27.2-60.5-60.5s27.2-60.5,60.5-60.5s60.5,27.2,60.5,60.5
			S-141.5,481.5-174.9,481.5z M-174.9,366.2c-30.2,0-54.8,24.6-54.8,54.8s24.6,54.8,54.8,54.8s54.8-24.6,54.8-54.8
			S-144.7,366.2-174.9,366.2z"/>
	</g>
	<path class="st0" d="M-144.3,451.9l-27.1-27.1l27.1-27.1c1.1-1.1,1.1-2.9,0-4.1c-1.1-1.1-2.9-1.1-4.1,0l-27.1,27.1l-27.1-27.1
		c-1.1-1.1-2.9-1.1-4.1,0c-1.1,1.1-1.1,2.9,0,4.1l27.1,27.1l-27.1,27.1c-1.1,1.1-1.1,2.9,0,4.1c1.1,1.1,2.9,1.1,4.1,0l27.1-27.1
		l27.1,27.1c1.1,1.1,2.9,1.1,4.1,0C-143.2,454.8-143.2,453-144.3,451.9z"/>
</g>
</svg>
