<?xml version="1.0" encoding="utf-8"?>
<!-- Generator: Adobe Illustrator 19.0.0, SVG Export Plug-In . SVG Version: 6.00 Build 0)  -->
<svg version="1.1" id="图层_1" xmlns="http://www.w3.org/2000/svg" xmlns:xlink="http://www.w3.org/1999/xlink" x="0px" y="0px"
	 viewBox="0 0 22 22" style="enable-background:new 0 0 22 22;" xml:space="preserve">
<style type="text/css">
	.st0{display:none;}
	.st1{display:inline;}
	.st2{fill:#1D1E1E;}
</style>
<g id="XMLID_15_" class="st0">
	<g id="XMLID_17_" class="st1">
		<path id="XMLID_3_" class="st2" d="M10.9,21c-1.4,0-1.8-0.3-2.2-0.7C8.5,20.1,8.5,20,8.1,20l-0.2,0c-1,0-1,0-2,0.3
			c0,0-0.1,0-0.1,0C4,21.1,3,20.2,2.7,19.9c-0.6-0.7-0.8-1.6-0.4-2.3c0.2-0.3,0.9-1.7,1.7-3.2c1-1.8,2.1-4,2.4-4.5
			c0-0.3-0.1-1.2-0.3-2.1H5.3C5.1,7.7,5,7.6,4.9,7.5C4.8,7.4,4.8,7.3,4.8,7.1C5.6,2,6,1.7,6.1,1.5C6.7,1.1,7,1,8.1,1.1
			c1.2,0.1,1.8,1.7,2.1,2.5c0,0,0,0.1,0,0.1c0.1,0,0.3,0,0.6,0c0.1,0,0.1,0,0.2,0c0.1,0,0.1,0,0.2,0c0.2,0,0.4,0,0.5,0
			c0,0,0-0.1,0-0.1c0.3-0.8,0.9-2.4,2.1-2.5c1.1-0.1,1.4,0,2,0.5C16,1.7,16.4,2,17.2,7.1c0,0.1,0,0.3-0.1,0.4
			c-0.1,0.1-0.2,0.2-0.4,0.2h-0.7c-0.1,0.9-0.2,1.9-0.3,2.2c0.4,0.8,3.6,7,4,7.7l0,0c0.5,0.7,0.4,1.6-0.1,2.4
			c-0.7,0.9-1.9,1.1-3,0.7c-0.3-0.1-0.5-0.2-0.7-0.3C15.2,20,15,20,14.1,20c-0.4,0-0.6,0.1-0.8,0.3C12.8,20.7,12.3,21,10.9,21z
			 M7.2,19c0.2,0,0.4,0,0.7,0l0.2,0c0.7,0,1,0.3,1.3,0.6c0.2,0.2,0.4,0.4,1.5,0.4c1.2,0,1.5-0.2,1.8-0.5c0.3-0.2,0.6-0.5,1.4-0.5
			c1.1,0,1.5,0.1,2.2,0.4c0.2,0.1,0.4,0.2,0.7,0.3c0.9,0.3,1.6,0,1.9-0.4c0.2-0.3,0.4-0.8,0.1-1.2l0,0c-0.4-0.7-4.1-7.8-4.2-8
			c0-0.1-0.1-0.2,0.3-3c0-0.2,0.2-0.4,0.5-0.4h0.6c-0.3-2-0.7-4.1-0.9-4.4c-0.3-0.2-0.3-0.2-1.3-0.2c-0.3,0-0.7,0.3-1.3,1.9
			c-0.1,0.1-0.1,0.2-0.1,0.3c-0.2,0.4-0.7,0.5-1.5,0.4c-0.8,0.1-1.3-0.1-1.5-0.4c0-0.1-0.1-0.1-0.1-0.3c-0.6-1.5-1-1.8-1.3-1.9
			c-0.9-0.1-1,0-1.3,0.3C6.6,2.6,6.2,4.7,5.9,6.7h0.6c0.3,0,0.5,0.2,0.5,0.4c0.4,2.8,0.4,2.9,0.3,3c0,0.1,0,0.1-2.5,4.7
			C4,16.3,3.3,17.7,3.1,18c-0.1,0.2-0.1,0.8,0.3,1.2c0.4,0.5,1.1,0.6,2,0.2C6.3,19.1,6.6,19,7.2,19z"/>
	</g>
	<g id="XMLID_16_" class="st1">
		<rect id="XMLID_2_" x="6.5" y="9.9" class="st2" width="8.9" height="1"/>
	</g>
</g>
<g id="XMLID_1_" class="st0">
	<g id="XMLID_6_" class="st1">
		<path id="XMLID_8_" class="st2" d="M10.1,20.7c-4.5,0-5.9-1-6-1.1c-0.1-0.1-0.2-0.2-0.2-0.4L4,10.7H1.8c-0.1,0-0.3-0.1-0.4-0.2
			s-0.1-0.2-0.1-0.4l0.8-8.4c0-0.2,0.2-0.4,0.4-0.4c0.1,0,3-0.4,4.5,0c1,0.3,1.8,1.2,2.3,1.8c0.1,0.1,0.3,0.3,0.4,0.4h2.5
			c0.1-0.1,0.2-0.3,0.4-0.4C13.2,2.5,14,1.6,15,1.3c1.5-0.4,4.3,0,4.5,0c0.2,0,0.4,0.2,0.4,0.4l0.8,8.4c0,0.1,0,0.3-0.1,0.4
			s-0.2,0.2-0.4,0.2h-2.2l0.1,8.6c0,0.2-0.1,0.3-0.2,0.4c-0.1,0-1.8,1.2-7,1.1C10.7,20.7,10.4,20.7,10.1,20.7z M4.9,19
			c0.5,0.3,2.2,0.9,6.1,0.8c3.9,0.1,5.6-0.5,6.2-0.8l-0.1-8.8c0-0.1,0.1-0.3,0.1-0.4c0.1-0.1,0.2-0.1,0.4-0.1h2.1L19,2.2
			c-0.8-0.1-2.7-0.2-3.7,0c-0.7,0.2-1.4,0.9-1.8,1.5c-0.4,0.5-0.6,0.8-1,0.8H9.7c-0.4,0-0.6-0.3-1-0.8C8.2,3.2,7.5,2.4,6.8,2.3
			C5.9,2,4.1,2.1,3.1,2.2L2.4,9.7h2.1c0.1,0,0.3,0.1,0.4,0.1C4.9,9.9,5,10.1,5,10.2L4.9,19z"/>
	</g>
</g>
<g id="XMLID_7_">
	<g id="XMLID_12_">
		<path id="XMLID_18_" class="st2" d="M15.1,21c-0.6,0-1.6,0-3.1-0.1l-1.3,0c-3.8-0.1-7-2.6-7.4-5.7c-0.5-3.1,0.3-6.5,0.3-6.6
			l0.8-5.5c0-0.1,0-0.1,0.1-0.2c0.1-0.1,1.3-1.9,3-2c0.9,0,1.7,0.4,2.4,1.2c0.8,1,1.4,1.6,1.8,2.1c0.7,0.8,1,1.1,1.3,2.1
			c0.1,0.4,0.1,0.9,0,1.5c-0.1,0.8-0.2,1.4,0.2,1.7c1.5,0.4,4.1,2.8,4.7,5.5c0.3,1.3,0.2,3.1-1.4,4.7c0.4-0.2,0.9-0.5,1.3-1.5
			c0.1-0.3,0.4-0.4,0.7-0.3c0.3,0.1,0.4,0.4,0.3,0.7c-0.7,1.7-1.8,2-2.3,2.2C16.3,21,16.1,21,15.1,21z M5.5,3.4L4.7,8.8
			c0,0.1-0.8,3.4-0.3,6.3c0.5,2.9,3.7,4.8,6.5,4.9l1.3,0c1,0,1.9,0.1,2.6,0.1c0-0.1,0.1-0.2,0.2-0.2c1.8-1.3,2.4-2.8,2.1-4.6
			c-0.5-2.4-2.9-4.5-4-4.7c-0.1,0-0.1,0-0.2-0.1c-1-0.6-0.8-1.9-0.7-2.7c0.1-0.4,0.1-0.8,0.1-1c-0.2-0.7-0.5-1-1.1-1.7
			c-0.4-0.5-1-1.1-1.8-2.1c-0.5-0.6-1-0.9-1.5-0.9C6.7,1.9,5.8,2.9,5.5,3.4z"/>
	</g>
	<g id="XMLID_11_">
		<path id="XMLID_14_" class="st2" d="M11.7,19.6c-0.5,0-0.9,0-1.3-0.1c-2.5-0.7-4.2-3.8-4.3-4C6,15.4,6,15.3,6,15.2
			c0.1-0.8,0.5-5,1.3-6.1c0.6-0.8,0.8-2.3,0.8-2.8c0-0.3,0.3-0.5,0.5-0.5c0.3,0,0.5,0.3,0.5,0.5c0,0.1-0.1,2.1-1,3.3
			c-0.5,0.6-0.9,3.6-1.1,5.4c0.3,0.6,1.8,2.9,3.6,3.4c1.2,0.3,3.5-0.1,4.3-0.4c0.3-0.1,0.5,0.1,0.6,0.4c0.1,0.3-0.1,0.5-0.4,0.6
			C15.1,19.2,13.3,19.6,11.7,19.6z"/>
	</g>
</g>
</svg>
